<svg width="18" height="18" viewBox="0 0 18 18" fill="none" xmlns="http://www.w3.org/2000/svg">
<path d="M9 3.375C12.1066 3.375 14.625 5.8934 14.625 9C14.625 12.1066 12.1066 14.625 9 14.625C5.8934 14.625 3.375 12.1066 3.375 9C3.375 8.7177 3.39579 8.44035 3.43592 8.16922C3.48634 7.82865 3.23707 7.5 2.89281 7.5C2.61467 7.5 2.37075 7.69215 2.32853 7.9671C2.27682 8.30385 2.25 8.64877 2.25 9C2.25 12.728 5.27208 15.75 9 15.75C12.728 15.75 15.75 12.728 15.75 9C15.75 5.27208 12.728 2.25 9 2.25C7.27121 2.25 5.6942 2.89992 4.5 3.96876V3.1875C4.5 2.87684 4.24816 2.625 3.9375 2.625C3.62684 2.625 3.375 2.87684 3.375 3.1875V5.4375C3.375 5.74816 3.62684 6 3.9375 6H6.1875C6.49816 6 6.75 5.74816 6.75 5.4375C6.75 5.12684 6.49816 4.875 6.1875 4.875H5.1757C6.1793 3.94412 7.52318 3.375 9 3.375Z" fill="white"/>
</svg>
