<svg width="20" height="21" viewBox="0 0 20 21" fill="none" xmlns="http://www.w3.org/2000/svg">
<path d="M18.9519 1.04785C17.5543 -0.349669 15.2885 -0.349599 13.8911 1.048L1.94103 12.9994C1.5347 13.4058 1.2491 13.9169 1.116 14.476L0.0204088 19.0774C-0.0399112 19.3308 0.0355188 19.5973 0.219679 19.7815C0.403849 19.9656 0.670369 20.0411 0.923729 19.9807L5.52498 18.8852C6.08418 18.752 6.59546 18.4663 7.00191 18.0598L18.952 6.10837C20.3493 4.71088 20.3493 2.44526 18.9519 1.04785ZM14.9518 2.1086C15.7634 1.29684 17.0795 1.2968 17.8912 2.10851C18.7028 2.92016 18.7029 4.23608 17.8913 5.04777L17 5.93921L14.0606 2.99988L14.9518 2.1086ZM13 4.0606L15.9394 6.99994L5.94119 16.9992C5.73104 17.2094 5.46668 17.3571 5.17755 17.426L1.76191 18.2392L2.57521 14.8234C2.64402 14.5344 2.79168 14.2701 3.00175 14.06L13 4.0606Z" fill="#797F94"/>
</svg>
