<svg width="15" height="15" viewBox="0 0 15 15" fill="none" xmlns="http://www.w3.org/2000/svg">
<path d="M12.7083 0C13.974 0 15 1.02602 15 2.29167V12.7083C15 13.974 13.974 15 12.7083 15H2.29167C1.02602 15 0 13.974 0 12.7083V2.29167C0 1.02602 1.02602 0 2.29167 0H12.7083ZM12.7083 1.25H2.29167C1.71637 1.25 1.25 1.71637 1.25 2.29167V12.7083C1.25 13.2837 1.71637 13.75 2.29167 13.75H12.7083C13.2837 13.75 13.75 13.2837 13.75 12.7083V2.29167C13.75 1.71637 13.2837 1.25 12.7083 1.25ZM5.83333 9.53275L11.2247 4.14139C11.4688 3.89732 11.8645 3.89732 12.1086 4.14139C12.3305 4.36328 12.3507 4.7105 12.1691 4.95517L12.1086 5.02527L6.27525 10.8586C6.05342 11.0805 5.70617 11.1007 5.46149 10.9191L5.39139 10.8586L2.89139 8.35858C2.64732 8.1145 2.64732 7.71883 2.89139 7.47475C3.11328 7.25283 3.4605 7.23267 3.70517 7.41425L3.77527 7.47475L5.83333 9.53275Z" fill="#969CB1"/>
<mask id="mask0_1355_26050" style="mask-type:alpha" maskUnits="userSpaceOnUse" x="1" y="1" width="13" height="13">
<rect x="1.5" y="1.5" width="12" height="12" rx="2" fill="#37FFDB"/>
</mask>
<g mask="url(#mask0_1355_26050)">
<path d="M12.7083 0C13.974 0 15 1.02602 15 2.29167V12.7083C15 13.974 13.974 15 12.7083 15H2.29167C1.02602 15 0 13.974 0 12.7083V2.29167C0 1.02602 1.02602 0 2.29167 0H12.7083ZM12.7083 1.25H2.29167C1.71637 1.25 1.25 1.71637 1.25 2.29167V12.7083C1.25 13.2837 1.71637 13.75 2.29167 13.75H12.7083C13.2837 13.75 13.75 13.2837 13.75 12.7083V2.29167C13.75 1.71637 13.2837 1.25 12.7083 1.25ZM5.83333 9.53275L11.2247 4.14139C11.4688 3.89732 11.8645 3.89732 12.1086 4.14139C12.3305 4.36328 12.3507 4.7105 12.1691 4.95517L12.1086 5.02527L6.27525 10.8586C6.05342 11.0805 5.70617 11.1007 5.46149 10.9191L5.39139 10.8586L2.89139 8.35858C2.64732 8.1145 2.64732 7.71883 2.89139 7.47475C3.11328 7.25283 3.4605 7.23267 3.70517 7.41425L3.77527 7.47475L5.83333 9.53275Z" fill="#37FFDB"/>
</g>
</svg>
