<svg width="25" height="25" viewBox="0 0 25 25" fill="none" xmlns="http://www.w3.org/2000/svg">
<path d="M10.9246 3.40902C11.7625 2.70244 12.9877 2.70244 13.8256 3.40903L20.5756 9.10113C21.0825 9.52865 21.3751 10.158 21.3751 10.8212V20.6239C21.3751 21.5904 20.5916 22.3739 19.6251 22.3739H16.1251C15.1586 22.3739 14.3751 21.5904 14.3751 20.6239V15.1239C14.3751 14.9859 14.2632 14.8739 14.1251 14.8739H10.6251C10.487 14.8739 10.3751 14.9859 10.3751 15.1239V20.6239C10.3751 21.5904 9.59156 22.3739 8.62506 22.3739H5.12506C4.15856 22.3739 3.37506 21.5904 3.37506 20.6239V10.8212C3.37506 10.158 3.66761 9.52865 4.17458 9.10113L10.9246 3.40902ZM12.8586 4.55573C12.5793 4.3202 12.1709 4.3202 11.8916 4.55573L5.14157 10.2478C4.97258 10.3903 4.87506 10.6001 4.87506 10.8212V20.6239C4.87506 20.762 4.98699 20.8739 5.12506 20.8739H8.62506C8.76313 20.8739 8.87505 20.762 8.87505 20.6239V15.1239C8.87505 14.1574 9.65856 13.3739 10.6251 13.3739H14.1251C15.0916 13.3739 15.8751 14.1574 15.8751 15.1239V20.6239C15.8751 20.762 15.987 20.8739 16.1251 20.8739H19.6251C19.7632 20.8739 19.8751 20.762 19.8751 20.6239V10.8212C19.8751 10.6001 19.7776 10.3903 19.6086 10.2478L12.8586 4.55573Z" fill="#F5F5F5"/>
</svg>
