<svg width="18" height="18" viewBox="0 0 18 18" fill="none" xmlns="http://www.w3.org/2000/svg">
<path d="M9 0.5C4.30558 0.5 0.5 4.30558 0.5 9C0.5 13.6944 4.30558 17.5 9 17.5C13.6944 17.5 17.5 13.6944 17.5 9C17.5 4.30558 13.6944 0.5 9 0.5ZM7.75 10.4393L12.2197 5.96967C12.5126 5.67678 12.9874 5.67678 13.2803 5.96967C13.5466 6.23594 13.5708 6.6526 13.3529 6.94621L13.2803 7.0303L8.2803 12.0303C8.0141 12.2966 7.5974 12.3208 7.3038 12.1029L7.2197 12.0303L4.71967 9.5303C4.42678 9.2374 4.42678 8.7626 4.71967 8.4697C4.98594 8.2034 5.4026 8.1792 5.69621 8.3971L5.78033 8.4697L7.75 10.4393Z" fill="#555B70"/>
</svg>
