<svg width="4" height="20" viewBox="0 0 4 20" fill="none" xmlns="http://www.w3.org/2000/svg">
<path d="M1.44156 13.9221C1.329 12.8398 1.20346 11.7532 1.06494 10.6623C0.562771 6.54113 0.272727 3.2987 0.194805 0.935065C0.168831 0.311688 0.779221 0 2.02597 0C2.93506 0 3.51515 0.138528 3.76623 0.415584C3.87879 0.545455 3.93074 0.718615 3.92208 0.935065C3.84416 3.35931 3.64935 5.86147 3.33766 8.44156C3.03463 11.013 2.82684 12.8398 2.71429 13.9221H1.44156ZM0 18C0 17.4459 0.194805 16.974 0.584416 16.5844C0.974026 16.1948 1.44589 16 2 16C2.55411 16 3.02597 16.1948 3.41558 16.5844C3.80519 16.974 4 17.4459 4 18C4 18.5541 3.80519 19.026 3.41558 19.4156C3.02597 19.8052 2.55411 20 2 20C1.44589 20 0.974026 19.8052 0.584416 19.4156C0.194805 19.026 0 18.5541 0 18Z" fill="#37FFDB"/>
</svg>
