<svg width="15" height="15" viewBox="0 0 15 15" fill="none" xmlns="http://www.w3.org/2000/svg">
<path d="M2.29167 0H12.7083C13.974 0 15 1.02602 15 2.29167V12.7083C15 13.974 13.974 15 12.7083 15H2.29167C1.02602 15 0 13.974 0 12.7083V2.29167C0 1.02602 1.02602 0 2.29167 0ZM2.29167 1.25C1.71637 1.25 1.25 1.71637 1.25 2.29167V12.7083C1.25 13.2837 1.71637 13.75 2.29167 13.75H12.7083C13.2837 13.75 13.75 13.2837 13.75 12.7083V2.29167C13.75 1.71637 13.2837 1.25 12.7083 1.25H2.29167Z" fill="#969CB1"/>
</svg>
