<svg width="25" height="24" viewBox="0 0 25 24" fill="none" xmlns="http://www.w3.org/2000/svg">
<path d="M18.25 3C20.0449 3 21.5 4.45507 21.5 6.25V17.75C21.5 19.5449 20.0449 21 18.25 21H6.75C4.95507 21 3.5 19.5449 3.5 17.75V6.25C3.5 4.45507 4.95507 3 6.75 3H18.25ZM20 8.5H5V17.75C5 18.7165 5.7835 19.5 6.75 19.5H18.25C19.2165 19.5 20 18.7165 20 17.75V8.5ZM18.25 4.5H6.75C5.7835 4.5 5 5.2835 5 6.25V7H20V6.25C20 5.2835 19.2165 4.5 18.25 4.5Z" fill="white"/>
<rect x="7.5" y="5.53931" width="3.53933" height="1.50535" rx="0.752674" transform="rotate(-90 7.5 5.53931)" fill="white"/>
<rect x="16.5" y="5.53931" width="3.53933" height="1.50535" rx="0.752674" transform="rotate(-90 16.5 5.53931)" fill="white"/>
</svg>
