<svg width="24" height="25" viewBox="0 0 24 25" fill="none" xmlns="http://www.w3.org/2000/svg">
<path d="M10 3.00122C14.0041 3.00122 17.25 6.24716 17.25 10.2512C17.25 11.9831 16.6427 13.5731 15.6295 14.82L20.5303 19.7209C20.8232 20.0138 20.8232 20.4886 20.5303 20.7815C20.2641 21.0478 19.8474 21.072 19.5538 20.8541L19.4697 20.7815L14.5688 15.8807C13.3219 16.8939 11.7319 17.5012 10 17.5012C5.99594 17.5012 2.75 14.2553 2.75 10.2512C2.75 6.24716 5.99594 3.00122 10 3.00122ZM10 4.50122C6.82436 4.50122 4.25 7.07558 4.25 10.2512C4.25 13.4268 6.82436 16.0012 10 16.0012C13.1756 16.0012 15.75 13.4268 15.75 10.2512C15.75 7.07558 13.1756 4.50122 10 4.50122Z" fill="#F5F5F5"/>
</svg>
