<svg width="24" height="25" viewBox="0 0 24 25" fill="none" xmlns="http://www.w3.org/2000/svg">
<path d="M17.7507 21.2476C18.9927 21.2476 19.9995 20.2408 19.9995 18.9987V18.4233C19.9995 17.529 19.6799 16.6642 19.0984 15.9848C17.529 14.1513 15.1419 13.2465 11.9965 13.2465C8.85059 13.2465 6.46458 14.1516 4.89828 15.9859C4.31852 16.6648 4 17.5283 4 18.4211V18.9987C4 20.2408 5.00685 21.2476 6.24887 21.2476H17.7507ZM17.7507 19.7476H6.24887C5.83528 19.7476 5.5 19.4123 5.5 18.9987V18.4211C5.5 17.8854 5.69111 17.3673 6.03897 16.96C7.29227 15.4923 9.25815 14.7465 11.9965 14.7465C14.7348 14.7465 16.7024 15.4923 17.9589 16.9602C18.3078 17.3679 18.4995 17.8868 18.4995 18.4233V18.9987C18.4995 19.4123 18.1642 19.7476 17.7507 19.7476ZM11.9965 2.25122C14.7579 2.25122 16.9965 4.4898 16.9965 7.25122C16.9965 10.0127 14.7579 12.2512 11.9965 12.2512C9.23503 12.2512 6.99646 10.0127 6.99646 7.25122C6.99646 4.4898 9.23503 2.25122 11.9965 2.25122ZM11.9965 3.75122C10.0635 3.75122 8.49646 5.31823 8.49646 7.25122C8.49646 9.18422 10.0635 10.7512 11.9965 10.7512C13.9295 10.7512 15.4965 9.18422 15.4965 7.25122C15.4965 5.31823 13.9295 3.75122 11.9965 3.75122Z" fill="#F5F5F5"/>
</svg>
