<svg width="24" height="25" viewBox="0 0 24 25" fill="none" xmlns="http://www.w3.org/2000/svg">
<path d="M12.0001 2.24731C16.05 2.24731 19.3568 5.44206 19.4959 9.49637L19.5001 9.74731V13.8443L20.8801 17.0003C20.9492 17.1582 20.9848 17.3287 20.9848 17.5011C20.9848 18.1914 20.4252 18.7511 19.7348 18.7511L15.0001 18.7526C15.0001 20.4094 13.657 21.7526 12.0001 21.7526C10.4024 21.7526 9.09645 20.5036 9.0052 18.9288L8.99966 18.7503L4.27498 18.7511C4.10364 18.7511 3.93413 18.7158 3.77697 18.6476C3.14377 18.3725 2.85342 17.6363 3.12846 17.0031L4.50011 13.8452V9.74721C4.50071 5.59242 7.8522 2.24731 12.0001 2.24731ZM13.4997 18.7503L10.5001 18.7526C10.5001 19.581 11.1717 20.2526 12.0001 20.2526C12.7798 20.2526 13.4206 19.6577 13.4932 18.897L13.4997 18.7503ZM12.0001 3.74731C8.67995 3.74731 6.00059 6.42157 6.00011 9.74731V14.1569L4.65613 17.2511H19.3526L18.0001 14.1579L18.0002 9.76017L17.9965 9.53497C17.8854 6.30149 15.2417 3.74731 12.0001 3.74731Z" fill="#F5F5F5"/>
</svg>
