<svg width="24" height="24" viewBox="0 0 24 24" fill="none" xmlns="http://www.w3.org/2000/svg">
<path d="M8.27419 11.8871C8.27419 12.7912 7.54124 13.5242 6.6371 13.5242C5.73295 13.5242 5 12.7912 5 11.8871C5 10.983 5.73295 10.25 6.6371 10.25C7.54124 10.25 8.27419 10.983 8.27419 11.8871ZM13.8871 11.8871C13.8871 12.7912 13.1541 13.5242 12.25 13.5242C11.3459 13.5242 10.6129 12.7912 10.6129 11.8871C10.6129 10.983 11.3459 10.25 12.25 10.25C13.1541 10.25 13.8871 10.983 13.8871 11.8871ZM17.8629 13.5242C18.767 13.5242 19.5 12.7912 19.5 11.8871C19.5 10.983 18.767 10.25 17.8629 10.25C16.9588 10.25 16.2258 10.983 16.2258 11.8871C16.2258 12.7912 16.9588 13.5242 17.8629 13.5242Z" fill="white"/>
</svg>
