<svg width="20" height="16" viewBox="0 0 20 16" fill="none" xmlns="http://www.w3.org/2000/svg">
<path d="M2.25 0C1.00736 0 0 1.00736 0 2.25V4.75C0 5.99264 1.00736 7 2.25 7H4.75C5.99264 7 7 5.99264 7 4.75V2.25C7 1.00736 5.99264 0 4.75 0H2.25ZM1.5 2.25C1.5 1.83579 1.83579 1.5 2.25 1.5H4.75C5.16421 1.5 5.5 1.83579 5.5 2.25V4.75C5.5 5.16421 5.16421 5.5 4.75 5.5H2.25C1.83579 5.5 1.5 5.16421 1.5 4.75V2.25ZM9.25 1C8.8358 1 8.5 1.33579 8.5 1.75C8.5 2.16421 8.8358 2.5 9.25 2.5H19.25C19.6642 2.5 20 2.16421 20 1.75C20 1.33579 19.6642 1 19.25 1H9.25ZM9.25 4C8.8358 4 8.5 4.33579 8.5 4.75C8.5 5.16421 8.8358 5.5 9.25 5.5H16.25C16.6642 5.5 17 5.16421 17 4.75C17 4.33579 16.6642 4 16.25 4H9.25ZM2.25 9C1.00736 9 0 10.0074 0 11.25V13.75C0 14.9926 1.00736 16 2.25 16H4.75C5.99264 16 7 14.9926 7 13.75V11.25C7 10.0074 5.99264 9 4.75 9H2.25ZM1.5 11.25C1.5 10.8358 1.83579 10.5 2.25 10.5H4.75C5.16421 10.5 5.5 10.8358 5.5 11.25V13.75C5.5 14.1642 5.16421 14.5 4.75 14.5H2.25C1.83579 14.5 1.5 14.1642 1.5 13.75V11.25ZM9.25 10C8.8358 10 8.5 10.3358 8.5 10.75C8.5 11.1642 8.8358 11.5 9.25 11.5H19.25C19.6642 11.5 20 11.1642 20 10.75C20 10.3358 19.6642 10 19.25 10H9.25ZM9.25 13C8.8358 13 8.5 13.3358 8.5 13.75C8.5 14.1642 8.8358 14.5 9.25 14.5H16.25C16.6642 14.5 17 14.1642 17 13.75C17 13.3358 16.6642 13 16.25 13H9.25Z" fill="#797F94"/>
</svg>
